<svg version="1.1" id="Layer_1" xmlns="http://www.w3.org/2000/svg" xmlns:xlink="http://www.w3.org/1999/xlink" x="0px" y="0px"
	 width="100%" viewBox="0 0 1024 544" enable-background="new 0 0 1024 544" xml:space="preserve">
<path fill="#000000" opacity="1.000000" stroke="none" 
	d="
M547.265198,213.344574 
	C545.167847,214.747849 543.517456,216.417831 541.534302,217.058975 
	C533.643677,219.610077 530.647339,225.787064 528.051636,232.981415 
	C522.554138,248.218369 512.837280,260.206848 498.402802,267.991028 
	C496.069092,269.249542 494.984558,270.760681 494.988190,273.462494 
	C494.991882,276.274933 494.513306,279.094513 494.151245,281.898804 
	C493.873779,284.047729 492.560028,285.207947 490.380951,284.983093 
	C488.272980,284.765533 487.810883,283.213654 487.834808,281.358887 
	C487.870667,278.581299 487.844116,275.802917 487.844116,272.694977 
	C481.552612,273.051117 475.589508,274.393494 469.378418,273.463013 
	C445.795929,269.930115 427.802338,249.444870 427.679382,225.673126 
	C427.659851,221.893692 428.603149,220.096405 432.786957,219.483170 
	C460.436066,215.430481 484.524414,230.538849 492.469788,257.217590 
	C492.934296,258.777283 493.521606,260.300385 493.995117,261.675934 
	C496.654968,262.268219 498.158325,260.736511 499.772766,259.681152 
	C512.253723,251.522293 519.156799,239.291229 523.868164,225.696289 
	C525.775879,220.191254 528.472961,216.342163 533.962036,213.643463 
	C550.743347,205.392853 560.257812,192.082825 559.992493,172.801224 
	C559.905212,166.458572 559.203796,165.911041 553.001648,166.287109 
	C548.412781,166.565353 544.282532,168.337067 540.226868,170.301865 
	C538.457581,171.159027 536.720276,171.831009 535.431763,169.728622 
	C534.035339,167.450256 535.338257,165.782196 537.203674,164.773697 
	C549.007080,158.392395 561.399719,156.907257 573.594727,162.814926 
	C583.664368,167.692993 587.119324,177.354431 587.008545,187.870468 
	C586.917603,196.504959 589.487610,203.736557 594.397034,210.636459 
	C600.368225,219.028702 599.679688,221.396576 590.796631,227.043488 
	C589.923584,227.598480 588.712097,228.224457 588.852539,229.137375 
	C589.810181,235.358566 585.032593,240.276703 585.243164,246.410004 
	C585.515320,254.337494 580.630371,259.330658 572.590393,260.304260 
	C565.809387,261.125427 559.384216,259.193268 552.855286,257.929932 
	C546.541077,256.708160 540.231140,256.455627 534.424683,259.913330 
	C531.383850,261.724121 528.562195,263.877594 528.171143,267.817261 
	C527.720764,272.355133 528.953552,276.122498 533.452942,278.093323 
	C537.195374,279.732574 541.505676,278.116455 544.288818,274.185455 
	C545.535217,272.425110 546.728394,270.622833 548.054749,268.924744 
	C549.120056,267.561035 550.650391,267.388916 552.121765,268.086426 
	C554.018005,268.985352 553.293884,270.508392 552.822998,271.958618 
	C549.692749,281.599640 540.422729,287.372406 532.089783,284.690460 
	C526.201477,282.795319 522.390198,278.811157 521.667297,272.543823 
	C520.795471,264.984924 523.286499,258.645782 529.882812,254.536819 
	C537.082520,250.052017 545.103333,250.244629 553.149597,251.315964 
	C558.748352,252.061432 564.146362,254.022369 569.894653,253.927856 
	C576.450073,253.820099 578.673889,251.800278 578.663635,245.272781 
	C578.657776,241.531738 578.809875,237.927460 581.473755,234.955032 
	C581.583618,234.832413 581.748047,234.669647 581.736023,234.539597 
	C581.093994,227.617355 583.151367,222.292984 590.032776,219.360916 
	C591.335388,218.805878 590.479431,216.914276 589.786926,215.757217 
	C588.589966,213.757324 587.352112,211.778992 586.057312,209.841125 
	C582.337952,204.274628 580.355774,198.226166 580.732056,191.470139 
	C581.042603,185.893997 580.390259,180.487137 577.625671,175.505203 
	C575.365906,171.432907 572.327759,168.347519 566.204346,167.091583 
	C568.204529,186.014786 562.139893,201.438766 547.265198,213.344574 
M456.222321,262.298370 
	C462.282196,265.305328 468.353119,268.247833 475.562653,266.069214 
	C475.027344,262.765106 473.013916,260.946686 471.316833,258.938049 
	C466.272797,252.968063 459.947754,248.731384 452.980713,245.348312 
	C451.146912,244.457870 449.156555,243.516647 450.516205,240.869797 
	C451.750793,238.466354 453.732544,238.901688 455.681427,239.734222 
	C457.362305,240.452271 459.032898,241.226273 460.616608,242.134888 
	C469.442688,247.198685 476.820618,253.773300 481.998779,262.662445 
	C482.865021,264.149475 483.653076,266.516083 485.993042,265.471466 
	C488.343201,264.422302 486.962769,262.135376 486.578796,260.574646 
	C482.548187,244.191589 472.083191,233.551086 456.477386,227.881912 
	C450.659149,225.768295 444.489990,225.142303 438.256226,225.719055 
	C435.498444,225.974228 434.079803,226.842102 434.623779,230.145081 
	C436.890533,243.908340 443.312714,254.815292 456.222321,262.298370 
z"/>
<path fill="#000000" opacity="1.000000" stroke="none" 
	d="
M493.341492,158.396851 
	C496.771515,152.560059 500.902283,147.926208 506.300934,144.332336 
	C509.352844,142.300690 511.795990,142.183807 514.914856,144.255829 
	C527.779663,152.802521 535.048096,170.037903 531.868774,185.735687 
	C530.348938,193.239532 528.206726,200.630096 524.264832,207.279068 
	C514.591125,223.596222 500.368195,227.687088 483.434235,219.186768 
	C464.538239,209.701569 453.511230,189.598297 455.706970,168.637451 
	C456.476562,161.291168 458.050568,159.891266 465.484589,159.760498 
	C473.789215,159.614441 481.542664,161.958710 489.049133,165.130463 
	C491.246094,163.302414 491.669403,160.664124 493.341492,158.396851 
M498.830322,162.378845 
	C495.664246,166.830948 495.766510,170.089661 500.487701,174.146255 
	C507.884918,180.502136 511.742065,189.304520 512.966980,199.063934 
	C513.637817,204.408264 510.978516,209.458817 506.862427,211.114868 
	C502.812073,212.744461 497.919006,211.169769 494.479126,206.989380 
	C493.431061,205.715698 492.494049,204.291962 491.791412,202.802414 
	C488.028107,194.823868 486.062714,186.524597 487.443054,177.629608 
	C487.847412,175.023804 488.409790,172.355484 485.019501,170.871216 
	C479.163116,168.307266 473.115021,166.697357 466.739319,166.242188 
	C463.549011,166.014435 462.406586,167.443710 462.143951,170.587341 
	C460.490112,190.383133 473.172638,209.510254 492.221405,215.681839 
	C502.560852,219.031677 512.016724,215.445145 517.416748,206.006622 
	C520.654541,200.347305 522.810547,194.225388 524.915894,188.070236 
	C529.513062,174.629913 522.425720,159.061768 513.024353,151.271545 
	C511.323669,149.862305 509.921722,149.549332 508.280487,151.220840 
	C505.025055,154.536331 501.262390,157.407059 498.830322,162.378845 
M495.058807,193.421448 
	C495.658691,196.398468 496.844147,199.145844 498.530426,201.646957 
	C499.756500,203.465530 501.238464,205.390793 503.758026,204.623581 
	C506.513000,203.784698 506.864349,201.190643 506.522705,198.858871 
	C505.303375,190.536972 501.151947,183.826889 494.707031,177.668396 
	C493.300262,183.227722 493.769165,187.942642 495.058807,193.421448 
z"/>
<path fill="#000000" opacity="1.000000" stroke="none" 
	d="
M415.308044,403.772217 
	C413.750122,410.480927 409.177979,414.450623 401.575745,415.051727 
	C395.295258,415.548309 388.950043,415.223938 382.633514,415.267303 
	C379.289886,415.290222 379.052277,412.987396 379.042480,410.499084 
	C379.008453,401.852997 379.004883,393.206573 378.918610,384.560974 
	C378.872192,379.908630 380.235138,374.719604 374.498657,372.491608 
	C374.736847,370.984467 375.424164,370.678589 376.328369,370.593140 
	C384.622559,369.809387 392.925110,369.413574 401.187073,370.796448 
	C406.492981,371.684540 411.146301,373.665375 412.893921,379.450623 
	C414.336182,384.225037 412.083557,387.805603 408.539642,391.304443 
	C412.473907,394.528290 415.924713,397.901886 415.308044,403.772217 
M397.633942,394.664062 
	C394.695099,394.926056 390.467926,392.137207 389.553467,397.377441 
	C388.961060,400.772156 389.396027,404.348297 389.396088,407.843140 
	C389.396118,409.101410 389.868042,410.037079 391.151428,410.552643 
	C395.472961,412.288696 401.925110,409.922791 403.679840,405.904510 
	C405.675873,401.333679 403.769470,397.370880 397.633942,394.664062 
M402.582581,382.499023 
	C401.112488,376.767151 398.069092,374.501007 392.733795,375.233765 
	C387.305481,375.979370 389.709076,380.270569 389.452393,383.112762 
	C389.263794,385.201050 388.133026,388.290283 390.931519,389.327789 
	C393.932068,390.440186 397.197144,389.864197 399.944031,387.925262 
	C401.517181,386.814850 402.105286,385.040680 402.582581,382.499023 
z"/>
<path fill="#000000" opacity="1.000000" stroke="none" 
	d="
M638.661621,350.417297 
	C635.649963,345.794647 632.910828,341.433960 630.108582,337.114197 
	C629.216064,335.738373 628.272278,334.023651 626.254700,334.666443 
	C624.573608,335.201965 624.459961,336.981049 624.405823,338.445648 
	C624.270508,342.100739 624.187439,345.765320 624.298462,349.419556 
	C624.392151,352.504395 623.285828,354.056915 620.020996,354.090607 
	C616.544067,354.126434 616.525879,352.046234 616.560059,349.465210 
	C616.676575,340.651123 616.691772,331.834869 616.650085,323.019867 
	C616.627075,318.166931 617.933044,312.686279 611.508789,311.108185 
	C611.445374,309.670746 611.925720,309.060974 612.572449,309.026703 
	C620.365173,308.613770 628.191895,307.997864 635.927551,309.377716 
	C641.601501,310.389801 645.734253,313.448975 646.746033,319.574615 
	C647.725830,325.507263 644.706482,329.374390 640.034058,332.362457 
	C639.351685,332.798859 638.702515,333.287292 637.681152,334.000977 
	C641.146423,341.066681 644.257996,348.132965 651.610657,352.131409 
	C647.718628,355.574951 644.009827,355.059875 638.661621,350.417297 
M630.175354,329.621643 
	C631.577515,329.164856 633.172852,328.992920 634.345520,328.197754 
	C637.811707,325.847260 639.499695,322.691833 637.809814,318.424652 
	C636.271973,314.541229 631.965210,312.247528 627.686707,313.209839 
	C623.173767,314.224854 624.717163,318.048462 624.345703,320.915924 
	C624.178101,322.209473 624.334106,323.557373 624.445068,324.872040 
	C624.699463,327.886292 625.932556,329.941406 630.175354,329.621643 
z"/>
<path fill="#000000" opacity="1.000000" stroke="none" 
	d="
M441.969208,369.966064 
	C444.294281,369.973297 446.126282,369.958466 447.957367,369.992493 
	C456.593964,370.152924 458.955200,373.493805 456.507935,382.075317 
	C455.089417,382.587189 454.428619,381.854889 453.836334,380.649384 
	C451.565186,376.026917 441.789948,372.907776 437.678162,375.715454 
	C435.038025,377.518250 436.653046,380.631622 436.270294,383.140411 
	C435.562683,387.778412 437.651978,389.478180 442.184998,389.122986 
	C444.988739,388.903320 447.839844,389.166290 450.661407,389.343872 
	C452.234955,389.442932 453.679199,389.998444 453.681519,391.961609 
	C453.683990,394.051422 452.148468,394.273163 450.569366,394.304626 
	C448.239014,394.351135 445.907623,394.345703 443.576721,394.366455 
	C442.244965,394.378326 440.801727,394.066223 439.600189,394.469940 
	C433.138062,396.641144 437.344757,402.069977 436.362854,405.918732 
	C435.695007,408.536652 436.441620,410.820282 440.137268,410.747925 
	C446.095215,410.631195 452.377838,411.741913 455.824158,404.902588 
	C456.308472,403.941406 457.374939,403.629486 458.418823,404.160126 
	C459.520142,404.719940 459.383026,405.756958 459.263947,406.771179 
	C458.635010,412.126984 455.103210,415.289642 449.587585,415.323212 
	C443.593475,415.359650 437.583252,415.062439 431.609589,415.413635 
	C426.826019,415.694885 425.574432,413.685608 425.709473,409.281921 
	C425.954346,401.296997 425.832275,393.298615 425.755280,385.306885 
	C425.707367,380.330811 427.241211,374.759888 420.547333,371.551483 
	C427.814270,369.282532 434.699524,370.244507 441.969208,369.966064 
z"/>
<path fill="#000000" opacity="1.000000" stroke="none" 
	d="
M580.355347,307.736755 
	C590.816040,306.914886 598.574097,310.547241 602.539062,320.003479 
	C606.752625,330.052399 606.056885,339.960815 598.889709,348.575256 
	C591.825562,357.065918 576.729858,357.531830 568.849060,349.413239 
	C561.758789,342.108948 560.415283,333.055359 563.061035,323.451172 
	C565.427734,314.859741 570.949097,309.398438 580.355347,307.736755 
M572.217224,342.128387 
	C575.577576,348.882477 579.026672,351.301300 584.737793,350.679718 
	C590.958862,350.002655 593.878296,345.629822 595.496338,340.284393 
	C597.688843,333.041351 597.433167,325.807861 593.953491,318.960785 
	C591.682312,314.491791 588.107117,311.708984 582.798157,312.044403 
	C577.354614,312.388306 573.959717,315.554230 572.088989,320.434357 
	C569.427368,327.377411 569.497681,334.395447 572.217224,342.128387 
z"/>
<path fill="#000000" opacity="1.000000" stroke="none" 
	d="
M516.647827,398.760284 
	C516.619080,393.958374 516.625488,389.626495 516.582275,385.295135 
	C516.533630,380.420013 518.011902,374.996826 510.830292,372.472107 
	C515.031921,368.838745 518.791199,370.073120 522.357056,370.643311 
	C525.293030,371.112762 526.308716,373.390259 526.651245,376.067078 
	C527.713074,384.364258 526.814819,392.713165 527.306702,401.022583 
	C527.729309,408.162415 532.676270,412.006531 539.485107,410.623108 
	C544.265930,409.651764 547.563965,405.399231 547.685425,399.483643 
	C547.849548,391.489746 547.702515,383.489868 547.802612,375.493988 
	C547.829468,373.354279 546.939636,370.270355 550.667786,370.339050 
	C554.014160,370.400635 553.252869,373.244324 553.270569,375.252045 
	C553.338135,382.915283 553.363159,390.580658 553.258789,398.243256 
	C553.100891,409.836578 547.167053,415.891663 535.781677,416.255280 
	C524.309204,416.621643 517.510071,410.567780 516.647827,398.760284 
z"/>
<path fill="#000000" opacity="1.000000" stroke="none" 
	d="
M495.941956,386.163025 
	C498.167297,391.410522 500.237152,396.308502 502.287231,401.214691 
	C504.270691,405.961456 506.617950,410.465424 511.193298,413.547852 
	C505.277588,417.087067 498.616516,415.144348 494.935608,409.481110 
	C493.548370,407.346832 493.383209,403.796295 490.192291,403.568298 
	C485.578308,403.238647 480.788849,402.973053 476.314453,403.873657 
	C473.009094,404.538910 472.857269,408.818909 471.464539,411.568634 
	C470.190521,414.084076 469.072205,416.527588 465.338287,414.383118 
	C465.515106,410.145721 467.876221,406.631500 469.482300,402.914093 
	C473.699280,393.153259 478.100739,383.471863 482.469177,373.777039 
	C483.283173,371.970490 484.070190,370.020599 486.627808,370.112976 
	C489.066620,370.201111 490.029633,371.998260 490.826141,373.842560 
	C492.538452,377.807373 494.134277,381.822540 495.941956,386.163025 
M484.951172,398.523041 
	C486.283966,398.135620 487.982513,398.592926 488.886841,396.706116 
	C487.517365,393.083771 486.644257,389.114563 483.372864,385.522522 
	C481.381836,389.772522 478.882935,393.169250 478.224396,397.390900 
	C480.283386,398.603119 482.253662,398.578369 484.951172,398.523041 
z"/>
<path fill="#000000" opacity="1.000000" stroke="none" 
	d="
M635.410645,392.531799 
	C631.806030,398.046814 633.507202,403.861603 633.247559,409.410309 
	C632.981934,415.085358 632.511047,415.536987 626.806091,415.374359 
	C623.851013,415.290131 622.247009,414.160065 622.737061,411.218353 
	C624.521973,400.504761 620.099792,391.966522 613.934509,383.733826 
	C610.692444,379.404602 608.381226,374.379852 602.309753,372.557007 
	C607.264832,368.312164 614.426453,369.650696 619.519165,374.530182 
	C623.889282,378.717285 625.854553,384.589905 630.348694,389.838135 
	C633.718994,384.218964 636.905273,379.056183 639.933472,373.802277 
	C641.789917,370.581329 644.173828,369.453217 648.266968,371.227051 
	C643.949158,378.370575 639.771606,385.282104 635.410645,392.531799 
z"/>
<path fill="#000000" opacity="1.000000" stroke="none" 
	d="
M586.252747,380.295715 
	C586.246582,389.906097 586.256042,399.051666 586.234863,408.197174 
	C586.226562,411.776672 587.135132,415.414673 581.107117,415.518890 
	C574.708130,415.629517 575.726807,411.690216 575.711609,407.976837 
	C575.674927,398.997681 575.771057,390.017273 575.644531,381.039734 
	C575.615417,378.974854 576.854187,375.988617 573.300354,375.403564 
	C570.244751,374.900513 567.706848,375.916046 566.184692,378.796967 
	C565.799500,379.525940 565.512024,380.314667 565.252625,381.100067 
	C564.849365,382.320862 564.182190,383.216309 562.767883,383.036102 
	C561.296021,382.848572 561.122986,381.643219 560.918762,380.463959 
	C559.939819,374.811066 562.523071,370.595337 568.253845,370.297516 
	C577.702515,369.806458 587.191284,370.065735 596.663147,370.065918 
	C598.259583,370.065948 599.756348,370.640533 599.784119,372.558899 
	C599.816345,374.791046 598.184082,375.198303 596.364441,375.210968 
	C594.535400,375.223724 592.696838,375.358215 590.879456,375.218445 
	C587.462158,374.955627 585.863159,376.353912 586.252747,380.295715 
z"/>
<path fill="#000000" opacity="1.000000" stroke="none" 
	d="
M403.773499,347.077118 
	C402.268311,342.122925 399.078674,340.585510 394.525299,341.239685 
	C393.710907,341.356659 392.843506,341.370514 392.036194,341.228973 
	C385.255005,340.040314 380.937958,342.397186 379.309052,349.421234 
	C378.732025,351.909424 377.570984,354.677155 373.902069,353.445740 
	C372.801605,351.534363 374.032074,350.109314 374.648621,348.669220 
	C379.817169,336.596344 385.027740,324.541351 390.273285,312.501709 
	C391.044464,310.731598 391.571381,308.471161 394.190887,308.619110 
	C396.504974,308.749847 396.872253,310.853333 397.554169,312.479950 
	C399.931641,318.151489 402.010620,323.958984 404.614075,329.522400 
	C408.401215,337.615295 409.767395,347.106903 418.333618,352.557251 
	C412.517334,355.538910 408.250275,353.846313 403.773499,347.077118 
M389.897949,336.725128 
	C392.586975,336.470276 395.412201,337.324677 398.388062,335.874115 
	C396.641937,330.729462 395.056213,325.841736 392.021606,320.867554 
	C389.976715,325.268555 388.213348,329.134003 386.387787,332.969849 
	C384.982971,335.921600 386.193604,336.901825 389.897949,336.725128 
z"/>
<path fill="#000000" opacity="1.000000" stroke="none" 
	d="
M526.715332,326.022827 
	C526.713867,324.529663 526.733337,323.531494 526.710510,322.534332 
	C526.604492,317.908417 528.161682,312.656555 521.905396,310.866089 
	C522.658264,308.531494 524.161987,308.753937 525.411499,308.746979 
	C533.392578,308.702423 541.376648,308.608276 549.354431,308.778076 
	C554.041199,308.877808 557.301025,314.028412 555.762024,318.412781 
	C555.464050,319.261505 555.008179,319.896545 554.044128,319.920654 
	C553.089661,319.944580 552.629517,319.257782 552.146667,318.552063 
	C548.784302,313.637848 541.832520,311.337799 536.482361,313.285187 
	C535.634094,313.593964 534.814331,313.988770 534.788818,314.872314 
	C534.674133,318.843781 534.516724,322.827118 534.716003,326.789001 
	C534.814026,328.739227 536.731018,328.683594 538.232178,328.709961 
	C541.224426,328.762451 544.218506,328.729401 547.209839,328.807953 
	C548.604736,328.844574 549.944214,329.191681 549.947876,330.982208 
	C549.951477,332.752258 548.634583,333.164825 547.235596,333.211212 
	C544.411499,333.304840 541.578857,333.401672 538.758728,333.282623 
	C535.519714,333.145905 534.252014,334.593323 534.369446,337.754028 
	C534.499023,341.241180 534.403442,344.736664 534.409119,348.228516 
	C534.413696,351.073090 534.873413,354.149414 530.453674,354.092041 
	C526.335510,354.038544 526.745422,351.123901 526.736023,348.467590 
	C526.710327,341.151245 526.720703,333.834747 526.715332,326.022827 
z"/>
<path fill="#000000" opacity="1.000000" stroke="none" 
	d="
M453.419769,354.022217 
	C445.668121,354.041565 438.351044,353.859863 431.046021,354.079742 
	C426.614929,354.213104 424.765533,352.800262 424.944885,348.086060 
	C425.260529,339.789154 425.033905,331.471039 425.007172,323.161896 
	C424.991730,318.357635 426.337677,313.096924 420.279480,310.358276 
	C427.521790,306.245911 432.865814,308.744873 433.115509,316.194397 
	C433.427094,325.491119 433.431732,334.809052 433.196808,344.108429 
	C433.084778,348.542786 434.723846,350.009155 439.016510,349.763062 
	C443.819031,349.487732 448.651276,349.710297 453.470276,349.755310 
	C454.824005,349.767944 456.307159,349.883972 456.469116,351.647614 
	C456.632446,353.425934 455.231934,353.762421 453.419769,354.022217 
z"/>
<path fill="#000000" opacity="1.000000" stroke="none" 
	d="
M488.890503,354.039185 
	C482.913635,354.054993 477.407379,353.863037 471.927216,354.156860 
	C467.302338,354.404877 465.305420,353.024292 465.552124,347.996826 
	C465.935272,340.189697 465.693115,332.348724 465.613708,324.523163 
	C465.560333,319.267303 467.368622,313.387787 460.493988,310.328033 
	C468.593658,306.264709 473.240509,308.861420 473.291779,316.846405 
	C473.350555,326.004486 473.470490,335.167664 473.227997,344.319733 
	C473.116333,348.535065 474.707306,349.943695 478.771179,349.743103 
	C483.587952,349.505371 488.426788,349.667389 493.254944,349.735504 
	C494.689026,349.755707 496.674072,349.483917 496.876160,351.475067 
	C497.117859,353.856934 494.980255,353.796295 493.365417,353.954437 
	C492.044250,354.083832 490.704163,354.020111 488.890503,354.039185 
z"/>
</svg>